<?xml version="1.0" encoding="UTF-8"?>
<svg id="Layer_1" xmlns="http://www.w3.org/2000/svg" version="1.1" viewBox="0 0 16 16">
  <path fill="#0550e6" d="M3.51,13.93c.19.19.51.19.71,0l3.43-3.43c.19-.19.51-.19.71,0l3.43,3.43c.19.19.51.19.71,0l1.4-1.42c.19-.19.19-.51,0-.71l-3.4-3.4c-.19-.19-.19-.51,0-.71l3.4-3.43c.19-.2.19-.51,0-.71l-1.41-1.42c-.19-.19-.51-.19-.71,0l-3.43,3.43c-.19.19-.52.19-.71,0l-3.43-3.43c-.2-.19-.51-.19-.71,0l-1.41,1.42c-.19.19-.19.51,0,.71l3.4,3.43c.19.2.19.51,0,.71l-3.4,3.4c-.19.19-.19.52,0,.71,0,0,1.41,1.42,1.41,1.42Z"/>
</svg>
